<svg width="113" height="113" viewBox="0 0 113 113" fill="none" xmlns="http://www.w3.org/2000/svg">
<path d="M13.2422 56.5C11.7944 56.5 10.5938 55.2994 10.5938 53.8516V53.0394C10.5938 51.4151 11.9003 50.1438 13.4894 50.1438H15.8906V53.8516C15.8906 55.2994 14.69 56.5 13.2422 56.5Z" fill="#F8312F"/>
<path d="M54.8756 74.1562H44.2819L49.4375 105.019C49.5434 105.549 50.0025 105.938 50.5322 105.938H59.1484C59.6781 105.938 60.1019 105.443 60.0312 104.913L54.8756 74.1562ZM70.4484 74.1562H81.0422L74.0856 105.09C73.9797 105.584 73.5559 105.938 73.0262 105.938H64.41C64.2784 105.942 64.1476 105.915 64.0281 105.86C63.9085 105.805 63.8034 105.723 63.7212 105.62C63.6389 105.517 63.5818 105.396 63.5542 105.268C63.5267 105.139 63.5295 105.006 63.5625 104.878L70.4484 74.1562Z" fill="#D3883E"/>
<path d="M67.2703 34.3238C67.9472 29.6226 70.3215 25.3318 73.9451 22.2612C77.5687 19.1906 82.1909 17.5526 86.9394 17.6562C97.2153 17.8681 105.655 26.2372 105.937 36.5131C106.046 40.2377 105.082 43.9151 103.158 47.1065C101.235 50.2978 98.4337 52.8685 95.0895 54.5119C95.2566 55.4088 95.3414 56.3305 95.3437 57.2769V75.9219C95.3437 76.3103 95.5556 76.6634 95.8381 76.84L99.9697 79.5944C101.488 80.6185 102.406 82.3488 102.442 84.185V104.843C102.442 105.443 101.947 105.938 101.347 105.938H92.9425C92.3422 105.938 91.8478 105.443 91.8478 104.843V92.5541C91.8478 92.095 91.5653 91.7066 91.1416 91.53L82.49 88.0694C80.0651 87.1021 77.9803 85.4395 76.4975 83.2907C75.0147 81.142 74.2002 78.6029 74.1562 75.9925L59.4662 74.1563L42.375 77.6875V81.8191C42.375 87.3631 37.9256 91.8125 32.3816 91.8125H28.25V93.1544C28.25 94.355 27.2612 95.3438 26.0606 95.3438H19.8809C18.645 95.3438 17.6562 94.355 17.6562 93.1544V90.7884C17.6562 85.4916 21.9291 81.2188 27.1906 81.2188H31.7812V77.5816C27.2612 73.1322 24.7187 67.0584 24.7187 60.7022V54.0634C24.7187 53.4631 24.2244 52.9688 23.6241 52.9688H17.6562C11.7944 52.9688 7.0625 48.2369 7.0625 42.375V41.5275C7.0625 40.0444 8.26312 38.8438 9.74625 38.8438H15.0784C16.5969 38.8438 17.9387 37.8197 18.2919 36.3366L18.6097 35.0653C19.3491 32.1121 21.0535 29.4904 23.4525 27.616C25.8514 25.7417 28.8075 24.722 31.8519 24.7188H38.7025C40.7506 24.7188 42.6222 25.99 43.3637 27.8969L47.7778 38.9144L48.0144 39.5218C48.9007 41.8347 50.4898 45.9875 55.2287 45.3766L79.3119 42.4103C81.7564 42.2171 84.2108 42.633 86.4552 43.6209C88.6996 44.6088 90.664 46.1377 92.1727 48.0709C94.2941 46.9782 96.0549 45.2964 97.2438 43.2274C98.4327 41.1584 98.9991 38.7902 98.875 36.4072C98.5219 30.0863 93.4016 25.0013 87.1159 24.7188C82.0662 24.4716 77.6522 27.2612 75.5334 31.4281C74.2975 33.8294 71.755 35.3125 69.0712 35.3125H68.1531C68.0277 35.3134 67.9035 35.2876 67.7889 35.2367C67.6742 35.1859 67.5717 35.1112 67.4882 35.0177C67.4047 34.9241 67.342 34.8139 67.3045 34.6942C67.2669 34.5745 67.2553 34.4483 67.2703 34.3238Z" fill="#F3AD61"/>
<path d="M42.375 77.6875V70.6603L68.7534 70.625C71.755 70.625 74.1562 73.051 74.1562 75.9996C71.7701 77.1202 69.1649 77.6967 66.5288 77.6875H42.375Z" fill="#FFDEA7"/>
<path d="M24.7188 40.0444C24.7188 40.9979 25.4956 41.8101 26.4844 41.8101C27.4731 41.8101 28.25 40.9979 28.25 40.0444V38.0316C28.25 37.0429 27.4731 36.266 26.4844 36.266C25.4956 36.266 24.7188 37.0429 24.7188 38.0316V40.0444ZM9.71094 44.1407H11.4766C12.9244 44.1407 14.125 42.9401 14.125 41.4922C14.125 40.0444 12.9244 38.8438 11.4766 38.8438H9.71094C8.26313 38.8438 7.0625 40.0444 7.0625 41.4922C7.0625 42.9401 8.26313 44.1407 9.71094 44.1407Z" fill="#212121"/>
<path d="M31.7812 24.7188H44.3525C46.9303 24.7188 48.8372 27.1553 48.2016 29.6625L46.0828 38.1022C45.4825 40.6094 43.2225 42.375 40.6094 42.375C38.0316 42.375 35.7716 40.6094 35.1359 38.1022L31.7812 24.7188Z" fill="#D3883E"/>
</svg>
